HIERARCHY
ROOT Hips
{
	OFFSET 0.000000 35.082581 0.000000
	CHANNELS 6 Xposition Yposition Zposition Xrotation Yrotation Zrotation 
	JOINT Spine
	{
		OFFSET 0.000000 6.876099 0.125700
		CHANNELS 3 Xrotation Yrotation Zrotation
		JOINT Spine1
		{
			OFFSET 0.000000 5.730043 0.104720
			CHANNELS 3 Xrotation Yrotation Zrotation
			JOINT Spine1_split
			{
				OFFSET 0.000000 5.730043 0.104720
				CHANNELS 3 Xrotation Yrotation Zrotation
				JOINT Spine2
				{
					OFFSET 0.000000 5.730043 0.104720
					CHANNELS 3 Xrotation Yrotation Zrotation
					JOINT Neck
					{
						OFFSET 0.000000 10.314075 0.188496
						CHANNELS 3 Xrotation Yrotation Zrotation
						JOINT Head
						{
							OFFSET 0.000000 7.643700 -2.377400
							CHANNELS 3 Xrotation Yrotation Zrotation
							JOINT HeadTop_End
							{
								OFFSET 0.000000 43.788605 -13.619600
								CHANNELS 3 Xrotation Yrotation Zrotation
								End Site
								{
									OFFSET 0.000000 0.000000 0.000000
								}
							}
						}
					}
					JOINT LeftShoulder
					{
						OFFSET 2.196100 4.412489 0.087492
						CHANNELS 3 Xrotation Yrotation Zrotation
						JOINT LeftShoulder_split
						{
							OFFSET 2.196100 4.412489 0.087492
							CHANNELS 3 Xrotation Yrotation Zrotation
							JOINT LeftArm
							{
								OFFSET 8.771219 -2.981674 -0.026999
								CHANNELS 3 Xrotation Yrotation Zrotation
								JOINT LeftForeArm
								{
									OFFSET 8.512804 0.000000 -0.000000
									CHANNELS 3 Xrotation Yrotation Zrotation
									JOINT LeftHand
									{
										OFFSET 18.484802 0.000000 -0.000000
										CHANNELS 3 Xrotation Yrotation Zrotation
										JOINT LeftHandThumb1
										{
											OFFSET 2.499420 -1.158070 2.653252
											CHANNELS 3 Xrotation Yrotation Zrotation
											JOINT LeftHandThumb2
											{
												OFFSET 2.370079 -1.368366 1.368366
												CHANNELS 3 Xrotation Yrotation Zrotation
												JOINT LeftHandThumb3
												{
													OFFSET 2.676727 -1.545410 1.545409
													CHANNELS 3 Xrotation Yrotation Zrotation
													JOINT LeftHandThumb4
													{
														OFFSET 1.692226 -0.977005 0.977007
														CHANNELS 3 Xrotation Yrotation Zrotation
														End Site
														{
															OFFSET 0.000000 0.000000 0.000000
														}
													}
												}
											}
										}
										JOINT LeftHandIndex1
										{
											OFFSET 7.924831 -0.457527 2.345128
											CHANNELS 3 Xrotation Yrotation Zrotation
											JOINT LeftHandIndex2
											{
												OFFSET 3.643303 0.000000 0.000000
												CHANNELS 3 Xrotation Yrotation Zrotation
												JOINT LeftHandIndex3
												{
													OFFSET 3.810799 0.000000 0.000000
													CHANNELS 3 Xrotation Yrotation Zrotation
													JOINT LeftHandIndex4
													{
														OFFSET 2.403702 0.000000 0.000000
														CHANNELS 3 Xrotation Yrotation Zrotation
														End Site
														{
															OFFSET 0.000000 0.000000 0.000000
														}
													}
												}
											}
										}
										JOINT LeftHandMiddle1
										{
											OFFSET 8.563995 0.000000 -0.000000
											CHANNELS 3 Xrotation Yrotation Zrotation
											JOINT LeftHandMiddle2
											{
												OFFSET 3.861618 0.000000 0.000000
												CHANNELS 3 Xrotation Yrotation Zrotation
												JOINT LeftHandMiddle3
												{
													OFFSET 3.701603 0.000000 0.000000
													CHANNELS 3 Xrotation Yrotation Zrotation
													JOINT LeftHandMiddle4
													{
														OFFSET 2.322544 0.000000 0.000000
														CHANNELS 3 Xrotation Yrotation Zrotation
														End Site
														{
															OFFSET 0.000000 0.000000 0.000000
														}
													}
												}
											}
										}
										JOINT LeftHandRing1
										{
											OFFSET 8.426460 -0.424637 -3.286992
											CHANNELS 3 Xrotation Yrotation Zrotation
											JOINT LeftHandRing2
											{
												OFFSET 3.126408 0.000000 0.000000
												CHANNELS 3 Xrotation Yrotation Zrotation
												JOINT LeftHandRing3
												{
													OFFSET 3.085026 0.000000 0.000000
													CHANNELS 3 Xrotation Yrotation Zrotation
													JOINT LeftHandRing4
													{
														OFFSET 1.644005 0.000000 0.000000
														CHANNELS 3 Xrotation Yrotation Zrotation
														End Site
														{
															OFFSET 0.000000 0.000000 0.000000
														}
													}
												}
											}
										}
									}
								}
							}
						}
					}
					JOINT RightShoulder
					{
						OFFSET -2.196100 4.412496 0.070690
						CHANNELS 3 Xrotation Yrotation Zrotation
						JOINT RightShoulder_split
						{
							OFFSET -2.196100 4.412496 0.070690
							CHANNELS 3 Xrotation Yrotation Zrotation
							JOINT RightArm
							{
								OFFSET -8.771282 -2.981682 -0.094208
								CHANNELS 3 Xrotation Yrotation Zrotation
								JOINT RightForeArm
								{
									OFFSET -8.494598 0.000000 0.000000
									CHANNELS 3 Xrotation Yrotation Zrotation
									JOINT RightHand
									{
										OFFSET -18.483803 0.000000 0.000001
										CHANNELS 3 Xrotation Yrotation Zrotation
										JOINT RightHandThumb1
										{
											OFFSET -2.527351 -1.008072 2.575253
											CHANNELS 3 Xrotation Yrotation Zrotation
											JOINT RightHandThumb2
											{
												OFFSET -2.321518 -1.340328 1.340329
												CHANNELS 3 Xrotation Yrotation Zrotation
												JOINT RightHandThumb3
												{
													OFFSET -2.657753 -1.534454 1.534455
													CHANNELS 3 Xrotation Yrotation Zrotation
													JOINT RightHandThumb4
													{
														OFFSET -1.807510 -1.043568 1.043567
														CHANNELS 3 Xrotation Yrotation Zrotation
														End Site
														{
															OFFSET 0.000000 0.000000 0.000000
														}
													}
												}
											}
										}
										JOINT RightHandIndex1
										{
											OFFSET -8.811420 0.015533 2.887987
											CHANNELS 3 Xrotation Yrotation Zrotation
											JOINT RightHandIndex2
											{
												OFFSET -3.537502 0.000000 0.000000
												CHANNELS 3 Xrotation Yrotation Zrotation
												JOINT RightHandIndex3
												{
													OFFSET -3.356201 0.000000 0.000000
													CHANNELS 3 Xrotation Yrotation Zrotation
													JOINT RightHandIndex4
													{
														OFFSET -1.933098 0.000000 0.000000
														CHANNELS 3 Xrotation Yrotation Zrotation
														End Site
														{
															OFFSET 0.000000 0.000000 0.000000
														}
													}
												}
											}
										}
										JOINT RightHandMiddle1
										{
											OFFSET -8.178135 0.000000 0.000000
											CHANNELS 3 Xrotation Yrotation Zrotation
											JOINT RightHandMiddle2
											{
												OFFSET -3.901302 0.000000 0.000000
												CHANNELS 3 Xrotation Yrotation Zrotation
												JOINT RightHandMiddle3
												{
													OFFSET -3.909599 0.000000 0.000000
													CHANNELS 3 Xrotation Yrotation Zrotation
													JOINT RightHandMiddle4
													{
														OFFSET -2.376003 0.000000 0.000000
														CHANNELS 3 Xrotation Yrotation Zrotation
														End Site
														{
															OFFSET 0.000000 0.000000 0.000000
														}
													}
												}
											}
										}
										JOINT RightHandRing1
										{
											OFFSET -7.559013 0.014137 -2.865403
											CHANNELS 3 Xrotation Yrotation Zrotation
											JOINT RightHandRing2
											{
												OFFSET -3.449306 0.000000 0.000000
												CHANNELS 3 Xrotation Yrotation Zrotation
												JOINT RightHandRing3
												{
													OFFSET -3.362106 0.000000 0.000000
													CHANNELS 3 Xrotation Yrotation Zrotation
													JOINT RightHandRing4
													{
														OFFSET -2.076401 0.000000 0.000000
														CHANNELS 3 Xrotation Yrotation Zrotation
														End Site
														{
															OFFSET 0.000000 0.000000 0.000000
														}
													}
												}
											}
										}
									}
								}
							}
						}
					}
				}
			}
		}
	}
	JOINT LeftUpLeg
	{
		OFFSET 10.205400 -3.823500 0.155100
		CHANNELS 3 Xrotation Yrotation Zrotation
		JOINT LeftLeg
		{
			OFFSET 0.708757 -12.982077 0.567790
			CHANNELS 3 Xrotation Yrotation Zrotation
			JOINT LeftFoot
			{
				OFFSET -0.708756 -10.717838 -2.184338
				CHANNELS 3 Xrotation Yrotation Zrotation
				JOINT LeftToeBase
				{
					OFFSET 0.108149 -7.191104 7.560241
					CHANNELS 3 Xrotation Yrotation Zrotation
					JOINT LeftToe_End
					{
						OFFSET 0.070230 0.081724 4.490308
						CHANNELS 3 Xrotation Yrotation Zrotation
						End Site
						{
							OFFSET 0.000000 0.000000 0.000000
						}
					}
				}
			}
		}
	}
	JOINT RightUpLeg
	{
		OFFSET -10.205400 -3.823500 0.005500
		CHANNELS 3 Xrotation Yrotation Zrotation
		JOINT RightLeg
		{
			OFFSET -0.708756 -12.982134 0.610632
			CHANNELS 3 Xrotation Yrotation Zrotation
			JOINT RightFoot
			{
				OFFSET 0.708754 -10.717769 -1.945823
				CHANNELS 3 Xrotation Yrotation Zrotation
				JOINT RightToeBase
				{
					OFFSET -0.108140 -7.191069 7.372968
					CHANNELS 3 Xrotation Yrotation Zrotation
					JOINT RightToe_End
					{
						OFFSET -0.070227 0.081735 4.479403
						CHANNELS 3 Xrotation Yrotation Zrotation
						End Site
						{
							OFFSET 0.000000 0.000000 0.000000
						}
					}
				}
			}
		}
	}
}
MOTION
Frames: 5
Frame Time: 0.016667
0.377851 20.278507 8.531951 10.259108 1.091054 1.988244 6.860636 -1.647003 -1.436078 12.577068 -1.034805 -1.095898 0.000000 0.000000 0.000000 12.570157 -1.077110 -1.099539 -0.427491 -0.653574 -0.369724 -52.699868 2.125733 -7.829019 -0.000001 0.000000 -0.000001 2.038147 -12.501299 5.547300 0.000000 0.000000 0.000000 -60.008519 -29.861690 -11.556459 0.000007 -114.301235 0.000011 -11.910111 -28.831287 34.008028 20.858788 4.366373 2.192852 0.280522 11.989288 -27.457519 -10.342411 22.892258 8.820857 -0.000004 -0.000004 0.000001 0.425212 1.444475 -13.828663 0.836187 3.018164 -30.964967 0.004674 -0.234190 2.285933 0.000000 -0.000000 -0.000001 0.528393 5.942692 -8.228427 0.952406 3.203627 -33.106111 0.082052 0.978065 -9.590030 0.000000 0.000000 -0.000001 0.929999 7.386335 -10.768657 1.068076 3.374096 -35.122144 0.007248 0.291627 -2.846949 0.000000 -0.000000 -0.000001 1.433099 10.850707 -3.496023 0.000000 0.000000 0.000000 -73.306877 34.141257 27.922117 0.000007 117.257833 -0.000021 11.925576 3.902108 -19.976005 0.467955 9.476106 18.594376 2.135798 -23.166508 17.501139 -9.703681 -24.362257 -9.841069 -0.000003 -0.000003 -0.000000 2.448394 2.152560 1.738837 0.603749 -2.295192 29.472495 0.000817 0.087269 -1.071322 0.000000 -0.000000 -0.000001 -0.030325 -3.619544 -3.130921 1.500612 -3.425958 47.297773 0.001286 -0.109387 1.342964 0.000000 0.000002 -0.000001 0.239624 -6.342793 2.621641 0.613298 -2.311962 29.709465 0.060212 -0.747262 9.213467 0.000000 -0.000001 -0.000001 -98.833350 -12.276799 15.504079 92.725870 -0.367186 -0.886365 -1.566893 -5.292782 -13.260210 -0.103116 0.000007 -0.000003 0.000000 -0.000001 -0.000000 -101.372192 17.584952 -14.326520 96.665523 2.961445 -0.829298 -1.852479 -2.102639 15.262413 -0.191612 0.000002 0.000001 -0.000000 0.000001 -0.000000 
0.384495 20.265343 8.526235 10.529198 1.192518 1.988344 7.086440 -1.607152 -1.432237 12.767367 -1.020628 -1.140128 0.000000 0.000000 0.000000 12.760483 -1.062330 -1.143888 1.301036 -0.746534 -0.517727 -52.329795 1.916441 -7.951303 0.000000 0.000000 -0.000001 2.068321 -12.394305 6.151583 0.000000 0.000000 0.000000 -58.624470 -28.929895 -12.183153 0.000023 -114.948040 0.000029 -11.192799 -27.755678 33.451142 20.859671 4.363816 2.192699 0.280837 11.988514 -27.457581 -10.341904 22.894405 8.821848 -0.000003 -0.000003 -0.000002 0.424912 1.444544 -13.827427 0.836208 3.018191 -30.965216 0.004666 -0.234176 2.285675 -0.000000 0.000001 -0.000001 0.528577 5.943464 -8.229838 0.952405 3.203625 -33.106115 0.082057 0.978065 -9.589928 -0.000002 -0.000000 0.000001 0.929970 7.386369 -10.768206 1.068089 3.374081 -35.122093 0.007244 0.291670 -2.847387 -0.000000 -0.000000 0.000002 1.461477 11.134562 -3.330548 0.000000 0.000000 0.000000 -71.860461 33.821656 27.199867 -0.000033 117.434448 0.000003 12.138202 3.880011 -18.450875 0.466656 9.475933 18.593621 2.136571 -23.165295 17.504130 -9.701728 -24.360908 -9.839251 -0.000000 -0.000001 0.000002 2.449267 2.151597 1.737210 0.603722 -2.295117 29.471515 0.000814 0.087359 -1.072532 -0.000001 -0.000001 0.000001 -0.030352 -3.619678 -3.131627 1.500581 -3.425942 47.297288 0.001276 -0.109403 1.343022 0.000001 -0.000001 -0.000000 0.239628 -6.342695 2.621600 0.613288 -2.311937 29.709434 0.060218 -0.747337 9.214177 0.000000 -0.000001 0.000000 -99.255271 -12.210977 15.349004 92.587469 -0.278872 -0.878926 -1.312859 -5.343905 -13.152771 -0.103116 0.000007 -0.000003 -0.000000 -0.000001 -0.000000 -101.686005 17.701417 -14.337711 96.654601 2.889876 -0.829625 -1.755356 -2.089088 15.325346 -0.191614 0.000005 0.000001 0.000000 0.000001 -0.000000 
0.389313 20.249138 8.531008 10.818746 1.296179 2.016141 7.323481 -1.559649 -1.435001 12.972734 -0.981567 -1.186088 0.000000 0.000000 0.000000 12.966018 -1.022760 -1.189411 3.122168 -0.859578 -0.692142 -51.579348 1.594024 -8.096119 -0.000001 -0.000000 -0.000000 2.114940 -12.310455 6.918391 0.000000 0.000000 0.000000 -56.643889 -27.956558 -13.096902 0.000004 -115.667696 0.000006 -10.218842 -26.532467 32.956069 20.860410 4.360990 2.192196 0.281650 11.987410 -27.457775 -10.341463 22.896467 8.823447 -0.000004 -0.000000 -0.000004 0.424586 1.444426 -13.825834 0.836201 3.018204 -30.965421 0.004671 -0.234098 2.285085 -0.000001 0.000000 -0.000001 0.528709 5.944116 -8.230284 0.952393 3.203602 -33.105961 0.082055 0.978063 -9.589860 -0.000002 0.000000 -0.000001 0.929914 7.386418 -10.767157 1.068067 3.374068 -35.121946 0.007246 0.291766 -2.848149 -0.000000 -0.000000 -0.000000 1.487723 11.465038 -3.085983 0.000000 0.000000 0.000000 -69.923119 33.437888 26.381923 -0.000018 117.615967 0.000000 12.013545 4.096492 -16.866117 0.464873 9.475452 18.592480 2.137307 -23.163712 17.507030 -9.699705 -24.359424 -9.837473 0.000001 0.000001 0.000003 2.450244 2.150657 1.735388 0.603669 -2.295029 29.470299 0.000817 0.087470 -1.073701 -0.000000 0.000000 -0.000001 -0.030379 -3.619793 -3.132378 1.500525 -3.425896 47.296328 0.001279 -0.109398 1.343043 0.000000 -0.000001 0.000000 0.239617 -6.342684 2.621536 0.613289 -2.311937 29.709366 0.060231 -0.747392 9.214949 0.000000 0.000003 -0.000000 -99.644919 -12.135702 15.199432 92.492646 -0.203682 -0.877627 -1.147245 -5.372252 -13.111969 -0.103118 0.000008 -0.000003 -0.000000 -0.000000 0.000000 -102.027795 17.876982 -14.378171 96.708942 2.868563 -0.828085 -1.710345 -2.084745 15.398994 -0.191616 0.000005 0.000001 0.000000 0.000002 -0.000000 
0.392043 20.236202 8.541826 11.098003 1.392232 2.051296 7.559054 -1.508140 -1.442728 13.167892 -0.921942 -1.227742 0.000000 0.000000 0.000000 13.161518 -0.962646 -1.229827 4.847746 -0.977132 -0.865297 -50.472356 1.193751 -8.236321 -0.000000 0.000000 -0.000001 2.167040 -12.215268 7.794471 0.000000 0.000000 0.000000 -54.283236 -27.085359 -14.223974 -0.000023 -116.372435 -0.000015 -9.191120 -25.254524 32.508371 20.860977 4.358164 2.190991 0.282781 11.986088 -27.458004 -10.341000 22.898300 8.825425 0.000000 0.000005 -0.000002 0.424236 1.444155 -13.823950 0.836206 3.018212 -30.965557 0.004679 -0.234000 2.284275 -0.000001 -0.000000 0.000001 0.528783 5.944694 -8.230377 0.952382 3.203584 -33.105702 0.082046 0.978063 -9.589816 -0.000000 -0.000000 0.000000 0.929832 7.386546 -10.765672 1.068062 3.374055 -35.121809 0.007254 0.291851 -2.849114 0.000001 0.000000 0.000001 1.506052 11.775379 -2.798573 0.000000 0.000000 0.000000 -67.693629 33.040330 25.501061 -0.000025 117.763226 0.000002 11.410879 4.473167 -15.347882 0.463270 9.474900 18.591046 2.137480 -23.162039 17.507257 -9.697803 -24.358210 -9.835789 -0.000001 -0.000000 0.000001 2.451261 2.149772 1.734122 0.603634 -2.294963 29.469155 0.000811 0.087566 -1.074827 0.000001 0.000000 0.000000 -0.030367 -3.619856 -3.131864 1.500468 -3.425831 47.295228 0.001279 -0.109391 1.343047 0.000000 0.000002 -0.000000 0.239660 -6.342761 2.622045 0.613283 -2.311935 29.709376 0.060244 -0.747457 9.215657 0.000000 -0.000002 0.000000 -99.959941 -12.066765 15.076596 92.429549 -0.152958 -0.881273 -1.069483 -5.376845 -13.138979 -0.103116 0.000006 -0.000003 0.000000 -0.000001 0.000000 -102.330844 18.060340 -14.431461 96.790536 2.878004 -0.824944 -1.721720 -2.094025 15.484893 -0.191612 0.000006 0.000002 0.000000 0.000000 -0.000000 
0.392204 20.231907 8.555217 11.342382 1.471716 2.071215 7.780063 -1.457704 -1.452631 13.326662 -0.850600 -1.259117 0.000000 0.000000 0.000000 13.320778 -0.890772 -1.259121 6.302605 -1.082771 -1.010006 -49.120651 0.763351 -8.344564 -0.000000 0.000000 -0.000000 2.212186 -12.088713 8.699936 0.000000 0.000000 0.000000 -51.845883 -26.430327 -15.426353 -0.000019 -116.973656 -0.000005 -8.331626 -24.017080 32.089858 20.861394 4.355756 2.188940 0.283740 11.984755 -27.458105 -10.340311 22.899734 8.827307 0.000001 -0.000000 -0.000004 0.423882 1.443756 -13.822034 0.836223 3.018229 -30.965718 0.004668 -0.233929 2.283474 -0.000001 0.000000 -0.000000 0.528928 5.945303 -8.231231 0.952365 3.203559 -33.105490 0.082045 0.978052 -9.589729 0.000001 -0.000000 -0.000000 0.929766 7.386729 -10.764307 1.068068 3.374060 -35.121830 0.007257 0.291954 -2.850009 0.000003 -0.000000 -0.000001 1.514859 12.012165 -2.520066 0.000000 0.000000 0.000000 -65.445527 32.679621 24.612986 -0.000012 117.850652 -0.000018 10.282458 4.856955 -13.986187 0.462664 9.474494 18.589559 2.136415 -23.160617 17.501970 -9.696217 -24.357839 -9.834426 0.000001 -0.000002 -0.000000 2.452301 2.148840 1.734103 0.603590 -2.294895 29.468435 0.000833 0.087641 -1.075896 0.000000 -0.000002 -0.000000 -0.030283 -3.619832 -3.128651 1.500417 -3.425783 47.294491 0.001283 -0.109403 1.343090 0.000000 -0.000001 0.000000 0.239775 -6.342959 2.623653 0.613299 -2.311957 29.709667 0.060248 -0.747497 9.216198 -0.000000 -0.000000 0.000000 -100.187899 -12.020127 14.993078 92.375139 -0.134961 -0.886654 -1.047538 -5.368293 -13.197486 -0.103120 0.000006 -0.000004 0.000000 -0.000002 -0.000000 -102.537853 18.208576 -14.488208 96.856420 2.895739 -0.821131 -1.781064 -2.114259 15.576463 -0.191615 0.000001 0.000001 0.000000 -0.000000 0.000000 
